<svg width="25" height="24" viewBox="0 0 25 24" fill="none" xmlns="http://www.w3.org/2000/svg">
<g id="ForkKnife">
<path id="Vector" d="M12.4921 7.47893C12.4917 7.46538 12.4912 7.45183 12.49 7.43819C12.4889 7.42451 12.4872 7.41101 12.4854 7.39754C12.4844 7.39059 12.4841 7.38367 12.483 7.37667L11.733 2.87667C11.7168 2.77947 11.6817 2.6864 11.6296 2.60278C11.5774 2.51916 11.5094 2.44663 11.4292 2.38934C11.349 2.33205 11.2584 2.29111 11.1624 2.26887C11.0664 2.24663 10.967 2.24352 10.8698 2.25972C10.7726 2.27592 10.6795 2.31112 10.5959 2.36329C10.5124 2.41547 10.4399 2.4836 10.3826 2.5638C10.3254 2.644 10.2845 2.73469 10.2623 2.8307C10.2401 2.9267 10.2371 3.02613 10.2534 3.12331L10.8578 6.74999H9.11816V2.99999C9.11816 2.80108 9.03915 2.61031 8.89849 2.46966C8.75784 2.32901 8.56708 2.24999 8.36816 2.24999C8.16925 2.24999 7.97849 2.32901 7.83783 2.46966C7.69718 2.61031 7.61816 2.80108 7.61816 2.99999V6.74999H5.87853L6.48296 3.12331C6.49922 3.02613 6.49618 2.9267 6.474 2.8307C6.45182 2.73469 6.41094 2.644 6.3537 2.5638C6.29646 2.4836 6.22397 2.41547 6.14039 2.36329C6.0568 2.31112 5.96376 2.27592 5.86657 2.25972C5.76937 2.24352 5.66994 2.24663 5.57395 2.26887C5.47796 2.29111 5.3873 2.33205 5.30714 2.38934C5.22697 2.44663 5.15889 2.51916 5.10677 2.60278C5.05464 2.6864 5.01951 2.77947 5.00337 2.87667L4.25337 7.37667C4.25223 7.38367 4.25195 7.39059 4.25095 7.39754C4.24912 7.411 4.24742 7.42451 4.24628 7.43819C4.24513 7.45183 4.24463 7.46538 4.24421 7.47893C4.24403 7.48598 4.24316 7.4929 4.24316 7.49999C4.24316 7.50667 4.24362 7.51322 4.24367 7.51986C4.24381 7.52448 4.24381 7.52906 4.24403 7.53364C4.25309 8.4912 4.59456 9.41586 5.21004 10.1495C5.82551 10.8831 6.67675 11.3801 7.61816 11.5554V21C7.61816 21.1989 7.69718 21.3897 7.83783 21.5303C7.97849 21.671 8.16925 21.75 8.36816 21.75C8.56708 21.75 8.75784 21.671 8.89849 21.5303C9.03915 21.3897 9.11816 21.1989 9.11816 21V11.5554C10.0596 11.3801 10.9108 10.8831 11.5263 10.1495C12.1418 9.41586 12.4832 8.49119 12.4923 7.53364C12.4925 7.52906 12.4925 7.52448 12.4927 7.51986C12.4927 7.51322 12.4932 7.50667 12.4932 7.49999C12.4932 7.4929 12.4923 7.48598 12.4921 7.47893Z" fill="black"/>
<path id="Vector_2" d="M20.3674 2.98673C20.3672 2.97126 20.3663 2.95578 20.3651 2.94026C20.3643 2.92973 20.3633 2.9193 20.362 2.90891C20.3604 2.89595 20.3584 2.883 20.3561 2.87004C20.3538 2.85699 20.3513 2.84409 20.3484 2.83131C20.346 2.82115 20.3434 2.81104 20.3406 2.80092C20.3364 2.78586 20.3319 2.77103 20.3268 2.75638C20.3254 2.75217 20.3245 2.74791 20.323 2.7437C20.3213 2.73917 20.3191 2.73495 20.3174 2.73047C20.3117 2.71577 20.3056 2.70134 20.2991 2.68716C20.2949 2.67791 20.2905 2.66879 20.2859 2.65979C20.2797 2.64771 20.2732 2.63582 20.2664 2.62413C20.2604 2.61365 20.2542 2.60335 20.2477 2.59323C20.2415 2.58371 20.2351 2.57446 20.2285 2.56522C20.2205 2.55405 20.2125 2.54311 20.204 2.53249C20.1977 2.52466 20.1912 2.51711 20.1847 2.50955C20.1754 2.49875 20.1658 2.48808 20.1559 2.47787C20.149 2.47073 20.1417 2.46387 20.1345 2.457C20.1245 2.44748 20.1144 2.43814 20.104 2.42921C20.0955 2.42203 20.0868 2.41525 20.078 2.40843C20.0682 2.40083 20.0584 2.39328 20.0482 2.38614C20.0379 2.37886 20.0271 2.37204 20.0164 2.36531C20.0073 2.35959 19.9982 2.35382 19.9888 2.34851C19.9766 2.34155 19.9641 2.33514 19.9514 2.32887C19.9428 2.32457 19.9342 2.32027 19.9253 2.31628C19.9121 2.31033 19.8986 2.30493 19.8849 2.29971C19.8758 2.29628 19.8668 2.29285 19.8575 2.28973C19.8444 2.28529 19.8311 2.2814 19.8177 2.27769C19.807 2.27472 19.7963 2.27193 19.7855 2.26941C19.7736 2.26671 19.7616 2.26437 19.7495 2.26222C19.7363 2.25984 19.7232 2.25783 19.7099 2.25618C19.6997 2.25494 19.6894 2.25394 19.6791 2.25307C19.6637 2.25183 19.6483 2.25105 19.6328 2.25073C19.6278 2.25064 19.6231 2.25 19.6181 2.25C19.6136 2.25 19.6092 2.2506 19.6047 2.25069C19.5893 2.25096 19.5739 2.25179 19.5585 2.25302C19.5479 2.25385 19.5374 2.2548 19.527 2.25609C19.514 2.25769 19.5011 2.2597 19.4882 2.26199C19.4751 2.26428 19.4622 2.2668 19.4494 2.26978C19.4393 2.27211 19.4292 2.27476 19.419 2.27756C19.404 2.28168 19.3892 2.28621 19.3745 2.29129C19.3703 2.29271 19.366 2.29362 19.3618 2.29513C19.3526 2.29852 19.3435 2.30255 19.3343 2.30598C19.3308 2.3074 19.3272 2.30864 19.3237 2.3101C17.3916 3.03625 15.8442 5.4066 14.7246 9.35806C14.2168 11.1814 13.8483 13.0408 13.6224 14.9201C13.6112 15.0247 13.6222 15.1305 13.6545 15.2306C13.6869 15.3308 13.74 15.423 13.8103 15.5012C13.8806 15.5795 13.9666 15.6421 14.0627 15.685C14.1588 15.7278 14.2629 15.75 14.3681 15.75H18.8681V21C18.8681 21.1989 18.9471 21.3897 19.0878 21.5303C19.2284 21.671 19.4192 21.75 19.6181 21.75C19.817 21.75 20.0078 21.671 20.1485 21.5303C20.2891 21.3897 20.3681 21.1989 20.3681 21V3C20.3681 2.99551 20.3675 2.99121 20.3674 2.98673Z" fill="black"/>
</g>
</svg>
