<svg width="25" height="24" viewBox="0 0 25 24" fill="none" xmlns="http://www.w3.org/2000/svg">
<g id="printer">
<path id="Vector" d="M6.49316 9V2H18.4932V9" stroke="black" stroke-width="2" stroke-linecap="round" stroke-linejoin="round"/>
<path id="Vector_2" d="M6.49316 18H4.49316C3.96273 18 3.45402 17.7893 3.07895 17.4142C2.70388 17.0391 2.49316 16.5304 2.49316 16V11C2.49316 10.4696 2.70388 9.96086 3.07895 9.58579C3.45402 9.21071 3.96273 9 4.49316 9H20.4932C21.0236 9 21.5323 9.21071 21.9074 9.58579C22.2824 9.96086 22.4932 10.4696 22.4932 11V16C22.4932 16.5304 22.2824 17.0391 21.9074 17.4142C21.5323 17.7893 21.0236 18 20.4932 18H18.4932" stroke="black" stroke-width="2" stroke-linecap="round" stroke-linejoin="round"/>
<path id="Vector_3" d="M18.4932 14H6.49316V22H18.4932V14Z" stroke="black" stroke-width="2" stroke-linecap="round" stroke-linejoin="round"/>
</g>
</svg>
