<svg width="25" height="24" viewBox="0 0 25 24" fill="none" xmlns="http://www.w3.org/2000/svg">
<g id="Timer">
<path id="Vector" d="M10.2432 1.5H14.7432C14.9421 1.5 15.1328 1.42098 15.2735 1.28033C15.4141 1.13968 15.4932 0.948912 15.4932 0.75C15.4932 0.551088 15.4141 0.360322 15.2735 0.21967C15.1328 0.0790176 14.9421 0 14.7432 0L10.2432 0C10.0443 0 9.85349 0.0790176 9.71283 0.21967C9.57218 0.360322 9.49316 0.551088 9.49316 0.75C9.49316 0.948912 9.57218 1.13968 9.71283 1.28033C9.85349 1.42098 10.0443 1.5 10.2432 1.5Z" fill="black"/>
<path id="Vector_2" d="M12.4932 3C10.7131 3 8.97308 3.52784 7.49304 4.51677C6.01299 5.50571 4.85944 6.91131 4.17825 8.55585C3.49706 10.2004 3.31883 12.01 3.6661 13.7558C4.01337 15.5016 4.87053 17.1053 6.12921 18.364C7.38788 19.6226 8.99153 20.4798 10.7374 20.8271C12.4832 21.1743 14.2928 20.9961 15.9373 20.3149C17.5819 19.6337 18.9875 18.4802 19.9764 17.0001C20.9653 15.5201 21.4932 13.78 21.4932 12C21.4905 9.61388 20.5414 7.32626 18.8541 5.63902C17.1669 3.95178 14.8793 3.0027 12.4932 3ZM16.7358 8.81799L13.0235 12.5303C12.9539 12.6 12.8712 12.6552 12.7802 12.6929C12.6892 12.7306 12.5917 12.75 12.4932 12.75C12.3947 12.75 12.2972 12.7306 12.2062 12.6929C12.1152 12.6553 12.0325 12.6 11.9628 12.5304C11.8932 12.4607 11.838 12.378 11.8003 12.2871C11.7626 12.1961 11.7432 12.0985 11.7432 12C11.7431 11.9015 11.7625 11.804 11.8002 11.713C11.8379 11.622 11.8932 11.5393 11.9628 11.4697L15.6751 7.75736C15.7448 7.68771 15.8274 7.63246 15.9184 7.59477C16.0094 7.55708 16.107 7.53767 16.2055 7.53767C16.3039 7.53767 16.4015 7.55707 16.4925 7.59476C16.5835 7.63244 16.6661 7.68769 16.7358 7.75733C16.8054 7.82697 16.8607 7.90965 16.8984 8.00065C16.9361 8.09164 16.9555 8.18916 16.9555 8.28766C16.9555 8.38615 16.9361 8.48368 16.8984 8.57467C16.8607 8.66567 16.8055 8.74835 16.7358 8.81799H16.7358Z" fill="black"/>
</g>
</svg>
